<?xml version="1.0" encoding="utf-8"?>
<!-- Generator: Adobe Illustrator 27.3.1, SVG Export Plug-In . SVG Version: 6.00 Build 0)  -->
<svg version="1.1" id="Layer_1" xmlns="http://www.w3.org/2000/svg" xmlns:xlink="http://www.w3.org/1999/xlink" x="0px" y="0px"
	 viewBox="0 0 400 400" style="enable-background:new 0 0 400 400;" xml:space="preserve">
<style type="text/css">
	.st0{fill:#6F36FF;}
</style>
<g>
	<path class="st0" d="M334.8,209.2c78.3,7.3,86.7,127.9,8.3,146.6c-89.5,6-180.3,0.4-270.2,2.1c-84.5-9.6-97-128.9-17.9-157.7
		c5-30.3,39.5-52.7,68.6-42.3c3.2,1.2,6.8-0.1,8.6-3c56-88.9,187.5-58.9,195.7,47.6C328.4,206,331.3,208.8,334.8,209.2z
		 M130.9,176.8c-29.6-15.4-55.7-0.2-62.8,32.3c-0.6,2.6-2.5,4.6-5,5.4C28.6,225.7,8.5,261,19.8,296.6c8.8,25.8,33.5,46.5,61.4,46
		c86.1-2,173,4.4,258.7-2.6c69.3-22.8,51-117.8-19.6-117.4c-4.2,0-7.5-3.4-7.4-7.6c2.7-104.4-127.4-136.2-171.8-41.6
		C139.2,177.2,134.6,178.8,130.9,176.8z"/>
	<path class="st0" d="M371.4,164.4h-0.2c-3.4,0-6.3-2.3-7.1-5.5C347.3,97,281.9,54.4,218.7,56.7c-4.2,0.2-7.6-3.2-7.6-7.4v-0.4
		c0-4,3.2-7.2,7.1-7.4c69.9-2.7,143.4,44.9,160.4,113.8C379.7,160,376.1,164.4,371.4,164.4z"/>
	<path class="st0" d="M340.1,164.8c-0.1,0-0.1,0-0.2,0c-3,0-5.7-1.8-6.8-4.5c-18.3-45.1-65.9-75.1-114.3-73.1
		c-4.2,0.2-7.7-3.2-7.7-7.4l0,0c0-3.9,3.1-7.2,7-7.4c54.4-3,109.1,31.6,129,82.4C348.9,159.6,345.3,164.8,340.1,164.8z"/>
</g>
</svg>
